<?xml version="1.0" encoding="UTF-8" standalone="no"?>
<svg
   xmlns:dc="http://purl.org/dc/elements/1.1/"
   xmlns:cc="http://creativecommons.org/ns#"
   xmlns:rdf="http://www.w3.org/1999/02/22-rdf-syntax-ns#"
   xmlns:svg="http://www.w3.org/2000/svg"
   xmlns="http://www.w3.org/2000/svg"
   width="117.81993mm"
   height="58.28334mm"
   viewBox="0 0 117.81993 58.28334"
   version="1.1"
   id="svg2150">
  <defs
     id="defs2144" />
  <metadata
     id="metadata2147">
    <rdf:RDF>
      <cc:Work
         rdf:about="">
        <dc:format>image/svg+xml</dc:format>
        <dc:type
           rdf:resource="http://purl.org/dc/dcmitype/StillImage" />
        <dc:title></dc:title>
      </cc:Work>
    </rdf:RDF>
  </metadata>
  <g
     id="layer1"
     transform="translate(-46.923364,-119.025)">
    <path
       style="opacity:1;fill:#ffffff;fill-opacity:1;stroke:none;stroke-width:0.169074"
       d="m 72.367425,129.49743 c -4.142761,-0.0542 -8.213027,1.38925 -11.686233,3.58311 -3.622999,2.68827 -6.838207,6.17736 -8.373396,10.48982 -3.040983,7.93064 -1.040263,17.59322 5.166999,23.45796 3.537667,3.3821 8.201963,5.76416 13.122469,6.11839 4.241406,0.32279 8.624946,-0.27573 12.392621,-2.34049 6.192009,-3.24163 10.697533,-9.59575 11.571364,-16.54187 0.211783,-3.37802 0.237726,-6.87198 -1.024287,-10.07306 -2.276729,-6.87191 -8.257188,-12.23882 -15.230604,-14.04935 -1.924214,-0.56692 -3.946036,-0.64618 -5.938933,-0.64451 z"
       id="path2058" />
    <path
       style="opacity:1;fill:#ffffff;fill-opacity:1;stroke:none;stroke-width:0.169074"
       d="m 138.45786,129.4421 c -7.76251,0.0694 -15.21932,4.67134 -18.86698,11.50584 -1.57844,2.86336 -2.58403,6.07581 -2.54166,9.36722 -0.18579,3.26752 0.25725,6.58407 1.61042,9.58468 1.6686,4.0605 4.77191,7.4008 8.33741,9.88868 3.34872,2.11159 7.24873,3.61131 11.26452,3.38705 2.95299,0.0149 5.97384,-0.17533 8.70275,-1.41532 8.01318,-3.19715 13.97969,-11.43539 13.75422,-20.1683 0.30726,-8.00075 -4.45839,-15.81704 -11.49699,-19.52814 -3.28639,-1.77312 -7.02871,-2.69309 -10.76369,-2.62171 z"
       id="path2060" />
    <path
       style="fill:#00aced;fill-opacity:1;stroke:none;stroke-width:0.0231853"
       d="m 144.60782,138.69939 c -1.11801,0.16167 -2.20174,0.59492 -3.09083,1.2973 -1.28635,0.98209 -2.18647,2.45439 -2.46147,4.05032 -0.21685,1.17106 -0.0818,2.39314 0.32905,3.50726 -0.85026,0.065 -1.70382,0.0885 -2.55602,0.0499 -2.00733,-0.0951 -3.99883,-0.51841 -5.8676,-1.26067 -1.43787,-0.56673 -2.81018,-1.30315 -4.0561,-2.21887 -0.62125,-0.43782 -1.21526,-0.91279 -1.77181,-1.43003 -0.0867,-0.0138 -0.0818,0.13135 -0.12023,0.1881 -0.30978,0.85245 -0.4518,1.76983 -0.38979,2.67552 0.0641,0.67157 0.17035,1.34637 0.42892,1.9737 0.36397,0.97358 0.98972,1.83886 1.75987,2.53192 0.44944,0.37633 0.92748,0.7279 1.45586,0.98545 -0.85617,0.0673 -1.72763,-0.005 -2.55076,-0.2627 -0.14695,-0.0372 -0.28925,-0.11122 -0.43798,-0.13191 -0.0259,0.11786 0.041,0.25183 0.0516,0.37584 0.30842,1.6767 1.30165,3.21183 2.70393,4.18099 0.89237,0.62888 1.94589,1.01506 3.02895,1.13986 0.0798,0.0106 0.16121,0.0167 0.24055,0.022 -0.86447,0.35359 -1.80492,0.5134 -2.73816,0.49146 -0.0928,-0.0119 -0.0712,0.0943 -0.0323,0.14189 0.72867,1.42911 1.99609,2.57195 3.49567,3.14328 0.96384,0.38885 2.02071,0.49515 3.0512,0.41092 0.0502,0.0233 -0.14393,0.15736 -0.19554,0.22595 -1.1454,1.11234 -2.47953,2.03589 -3.94854,2.66377 -1.52132,0.67169 -3.17538,1.02075 -4.83315,1.0936 -0.0748,-0.0106 -0.0749,0.0819 -0.008,0.0934 1.08944,0.50661 2.23937,0.87844 3.4069,1.15772 1.84542,0.42122 3.75597,0.57895 5.64338,0.4168 0.92124,-0.11157 1.8436,-0.22917 2.75391,-0.41125 2.90231,-0.63224 5.66669,-1.94679 7.92735,-3.88219 2.09642,-1.7887 3.75624,-4.0731 4.85426,-6.59805 0.4996,-1.14391 0.8846,-2.33803 1.16337,-3.55439 0.51546,-2.29926 0.62617,-4.69539 0.25534,-7.02536 -0.0282,-0.18631 -0.056,-0.37267 -0.0842,-0.55898 0.77685,-0.75238 1.44981,-1.60889 2.0334,-2.51802 0.24059,-0.40048 0.48372,-0.80416 0.67379,-1.23072 -0.0387,-0.0844 -0.13156,0.0284 -0.18825,0.0432 -0.90758,0.53356 -1.86712,0.97103 -2.87304,1.28039 -0.13213,0.0411 -0.26404,0.0839 -0.39859,0.11298 0.61647,-0.50094 1.10419,-1.14488 1.51078,-1.8227 0.36286,-0.63628 0.61769,-1.33832 0.73489,-2.06125 -0.0385,-0.0923 -0.13493,0.035 -0.18582,0.058 -1.11,0.86226 -2.36357,1.54867 -3.68957,2.01578 -0.38203,-0.2514 -0.74861,-0.53052 -1.16372,-0.72813 -1.18163,-0.59218 -2.5529,-0.82488 -3.86196,-0.63217 z"
       id="path2062" />
    <g
       id="g2086"
       transform="matrix(0.26702626,0,0,0.26955313,25.980105,62.895797)">
      <path
         style="fill:#cc0000;fill-opacity:1;stroke:none;stroke-width:1.28192"
         d="m 728.94841,1081.0759 c -43.06381,-1.1056 -84.87499,14.3917 -121.68334,35.7127 -69.08604,40.8018 -125.29755,101.8258 -163.85129,171.9275 -24.46377,44.3932 -42.53734,92.3585 -54.28485,141.6413 -1.60393,9.5641 -4.71314,19.4494 -4.2463,29.0175 10.02068,2.0714 56.00618,47.0306 88.9045,62.1693 50.56563,23.2685 95.24121,41.7364 161.85363,41.8045 4.32685,-2.5725 -18.83812,-76.4731 -19.7465,-115.5163 -1.44391,-62.0612 -4.20003,-127.9147 22.8151,-184.8564 17.51307,-35.0097 44.87342,-65.275 79.42819,-83.8031 28.14646,-15.2 59.37884,-25.8246 91.44916,-26.9581 42.21679,-2.5304 84.23647,7.4745 122.57279,25.0732 29.41029,13.2662 56.32003,31.2075 83.1376,48.8668 4.6189,1.777 9.6164,-3.0258 12.0588,-6.6179 7e-4,-6.294 -7.714,-9.298 -11.2263,-13.6752 -42.22963,-37.1821 -89.71711,-68.6552 -140.9298,-92.0409 -36.74067,-16.2355 -75.89154,-27.4848 -115.81623,-32.0935 -10.13159,-0.6037 -20.28802,-0.7052 -30.43519,-0.6514 z"
         id="path2064"
         transform="scale(0.26458333)" />
      <path
         style="fill:#cc0000;fill-opacity:1;stroke:none;stroke-width:1.28192"
         d="m 379.49469,1305.7151 c -5.82037,11.3203 -11.48366,23.2513 -14.85434,35.6199 2.37526,4.9319 9.8471,4.1321 14.22723,6.7151 6.76485,1.5017 13.46597,7.7654 20.65962,5.6639 4.6886,-5.9245 5.82082,-14.3233 9.45988,-20.9943 1.13116,-4.758 5.57574,-9.7373 4.49147,-14.527 -6.92865,-4.2994 -15.86677,-5.649 -23.45531,-9.1808 -3.51326,-0.9128 -6.8485,-3.5709 -10.52855,-3.2968 z"
         id="path2066"
         transform="scale(0.26458333)" />
      <path
         style="fill:#cc0000;fill-opacity:1;stroke:none;stroke-width:1.28192"
         d="m 479.69918,1169.9061 c -6.82116,7.1624 -14.49716,13.6423 -20.61105,21.4192 0.79088,5.3111 7.44643,7.7623 10.7847,11.6459 4.65597,2.4061 10.70283,13.6927 15.24902,5.8274 5.22273,-7.202 13.03385,-13.1582 16.74071,-21.1344 -6.16477,-6.5664 -13.33774,-12.8518 -20.51351,-18.1616 -0.60159,-0.4511 -1.10988,0.156 -1.64987,0.4035 z"
         id="path2068"
         transform="scale(0.26458333)" />
      <path
         style="fill:#cc0000;fill-opacity:1;stroke:none;stroke-width:1.28192"
         d="m 596.90876,1080.8286 c -7.15182,3.9341 -14.64196,7.5722 -21.17192,12.454 -0.16825,5.6425 5.65878,9.9676 8.06692,14.8791 2.15677,3.6147 6.50083,8.6336 10.78422,4.48 5.79374,-3.5085 12.16873,-6.414 17.29437,-10.8422 -0.24493,-6.054 -6.21549,-10.6815 -8.93853,-15.9387 -1.73463,-1.6846 -2.95261,-5.962 -6.03506,-5.0322 z"
         id="path2070"
         transform="scale(0.26458333)" />
      <path
         style="fill:#cc0000;fill-opacity:1;stroke:none;stroke-width:1.28192"
         d="m 714.14705,1052.5265 c -4.81778,1.1519 -11.30253,-0.9854 -15.1127,2.5394 0.65056,6.1511 2.59215,12.7764 5.49613,18.1246 9.56055,-1.3055 19.49349,-0.7126 28.94909,-1.9785 0.0767,-6.2264 -2.90747,-13.0342 -5.11224,-18.8433 -4.18198,-1.278 -9.67663,0.3268 -14.22028,0.1578 z"
         id="path2072"
         transform="scale(0.26458333)" />
      <path
         style="fill:#cc0000;fill-opacity:1;stroke:none;stroke-width:1.28192"
         d="m 838.52215,1069.7502 c -1.41245,5.861 -1.84177,12.815 -0.70662,18.9394 4.24818,6.3527 13.54339,6.0242 19.79623,9.4179 2.76554,0.6732 8.23009,5.137 9.28314,0.057 0.52549,-6.0428 4.05114,-13.6885 -0.18769,-18.924 -8.47575,-4.8705 -18.61569,-8.4523 -28.18506,-9.4907 z"
         id="path2074"
         transform="scale(0.26458333)" />
      <path
         style="fill:#cc0000;fill-opacity:1;stroke:none;stroke-width:1.28192"
         d="m 837.18179,1160.8747 c -1.01833,6.3662 -1.15811,13.7241 0.0684,20.0524 8.92161,1.2085 18.09009,2.301 27.02798,3.6589 5.4183,-1.8905 3.49794,-9.5885 4.6217,-14.0484 0.63111,-7.9547 -9.61537,-7.0416 -14.77428,-8.1574 -5.58492,-0.4022 -11.46711,-2.4534 -16.94385,-1.5055 z"
         id="path2076"
         transform="scale(0.26458333)" />
      <path
         style="fill:#cc0000;fill-opacity:1;stroke:none;stroke-width:1.28192"
         d="m 768.25822,1168.3007 c -8.47439,2.929 -17.62686,5.3613 -25.28132,9.8065 2.11712,7.1213 4.62476,14.7856 7.91408,21.3861 8.57779,-2.3617 16.86248,-7.2004 25.42485,-9.7004 2.10543,-5.3662 -2.36071,-11.2795 -3.45137,-16.6077 -0.88823,-2.0012 -1.93349,-4.9728 -4.60624,-4.8845 z"
         id="path2078"
         transform="scale(0.26458333)" />
      <path
         style="fill:#cc0000;fill-opacity:1;stroke:none;stroke-width:1.28192"
         d="m 688.50801,1213.1023 c -5.39745,6.7122 -14.01532,11.8972 -17.01173,20.1561 3.13159,7.4709 7.86397,14.7357 13.52724,20.4896 5.52012,-0.6138 7.52471,-7.9983 11.49079,-11.2927 3.72698,-4.6357 10.81733,-9.9066 3.9237,-15.3622 -4.04452,-3.8199 -6.04491,-14.3257 -11.93,-13.9908 z"
         id="path2080"
         transform="scale(0.26458333)" />
      <path
         style="fill:#cc0000;fill-opacity:1;stroke:none;stroke-width:1.28192"
         d="m 638.87059,1295.7761 c -5.26372,3.8303 -5.39867,11.9091 -7.71534,17.6433 -1.6073,6.1617 -4.10662,14.6721 2.69396,18.7959 5.75326,4.2865 10.81029,10.432 17.62781,12.8714 4.55534,-2.6236 3.39932,-9.7767 4.9858,-14.2678 0.79872,-6.7472 3.22138,-13.4043 3.7718,-20.0118 -6.9964,-4.7697 -13.21794,-12.4188 -21.36403,-15.031 z"
         id="path2082"
         transform="scale(0.26458333)" />
      <path
         style="fill:#cc0000;fill-opacity:1;stroke:none;stroke-width:1.28192"
         d="m 625.84239,1400.9468 c -3.99532,2.6502 -0.72511,8.9192 -1.29497,12.9917 1.48677,8.3371 -0.0552,17.847 4.0331,25.4436 8.68083,3.8205 18.17497,6.6839 27.14281,10.14 3.2092,1.9085 9.22461,0.9497 7.80367,-3.9063 -2.40936,-11.138 -3.2333,-22.9402 -6.39303,-33.6863 -9.87159,-4.1183 -20.31161,-8.4909 -30.88969,-11.0203 z"
         id="path2084"
         transform="scale(0.26458333)" />
    </g>
    <path
       style="display:inline;opacity:1;fill:#0c5689;fill-opacity:1;stroke:none;stroke-width:0.169074"
       d="m 105.39049,134.1456 c -2.15128,-8e-5 -4.17325,1.47794 -5.12259,3.3673 -1.628845,3.02807 -0.18487,7.14386 2.92112,8.56969 2.76438,1.31358 6.44833,0.32345 8.0309,-2.34942 1.09492,-1.46356 0.93474,-3.40026 0.75635,-5.11182 -0.79472,-2.58009 -3.32716,-4.73649 -6.12329,-4.47662 -0.15416,2.6e-4 -0.30832,5.3e-4 -0.46249,7.9e-4 z"
       id="path2088" />
    <path
       style="display:inline;opacity:1;fill:#0c5689;fill-opacity:1;stroke:none;stroke-width:0.169074"
       d="m 81.919299,119.03906 c -4.65794,-0.0525 -8.614482,2.71166 -12.597337,4.73744 -1.954956,1.10028 -4.053303,2.01373 -5.908535,3.25618 0.06142,0.78273 1.046562,0.0898 1.502138,0.0529 7.405394,-2.42841 15.821179,-1.24751 22.243696,3.17494 0.947229,0.53984 1.723133,1.3691 2.629299,1.92159 4.024805,-2.30337 7.854516,-4.96941 11.96466,-7.12573 3.42132,-1.39896 7.52964,-0.93278 10.52415,1.22369 3.20545,1.86358 6.30122,3.95239 9.54683,5.72963 1.1119,-0.25838 1.8124,-1.36171 2.82179,-1.85829 4.33615,-2.82171 9.42746,-4.43676 14.61319,-4.26395 3.36191,-0.13117 6.63551,0.86285 9.77746,1.97354 0.70708,-0.17218 -0.001,-0.72966 -0.36433,-0.82652 -4.14501,-2.20653 -8.25716,-4.48449 -12.47025,-6.55782 -2.12127,-0.98446 -4.44096,-1.54731 -6.78906,-1.38561 -2.21395,-0.11416 -4.44559,0.17206 -6.48588,1.07281 -2.27802,0.88053 -4.27297,2.33649 -6.02659,4.01473 -2.87535,-1.56951 -5.49422,-3.79069 -8.73337,-4.57594 -2.66174,-0.47217 -5.51472,-0.17393 -7.84742,1.27154 -1.798099,0.97479 -3.500859,2.1353 -5.274909,3.13548 -1.676226,-1.20641 -3.220143,-2.64222 -5.153171,-3.45438 -2.357321,-1.17684 -4.996304,-1.6023 -7.612972,-1.52053 -0.119806,-2.6e-4 -0.239589,0.004 -0.359389,0.004 z"
       id="path2090" />
    <path
       style="display:inline;opacity:1;fill:#0a344f;fill-opacity:1;stroke:none;stroke-width:0.169074"
       d="m 72.442982,125.65396 c -3.031122,-0.0196 -6.009637,0.74031 -8.886557,1.54677 -1.800266,0.51526 -3.438039,1.54134 -5.032841,2.50938 -7.034582,4.68067 -11.709282,12.92507 -11.591339,21.43304 -0.207157,7.49718 3.223092,14.9194 8.90104,19.78519 5.403596,4.78422 12.870857,7.09818 20.032522,6.1834 8.367593,-0.91078 16.075707,-6.23806 19.922709,-13.72203 2.931544,-5.59288 3.874371,-12.26445 2.229409,-18.39537 -1.253432,-5.03935 -4.093025,-9.69558 -8.040934,-13.06769 -1.510808,-0.86511 -2.823588,-2.10988 -4.401484,-2.90306 -3.978942,-2.25845 -8.556061,-3.44355 -13.132525,-3.36963 z m 0.412395,3.9789 c 6.184493,-0.0676 12.244174,2.7189 16.313428,7.38435 5.15928,5.71636 6.828722,14.34115 4.15865,21.61581 -2.226686,6.47559 -7.675388,11.66194 -14.244527,13.58064 -2.772886,0.88027 -5.7155,0.93195 -8.609007,0.82799 -7.012664,-0.80387 -13.614923,-5.11572 -16.871367,-11.43763 -3.2638,-6.11636 -3.420376,-13.77683 -0.242386,-19.97097 1.523558,-3.25262 4.133772,-5.88035 6.921863,-8.09148 3.676369,-2.51096 8.092871,-3.96287 12.573346,-3.90871 z m 16.982112,2.26729 c -0.0619,0.007 -0.0062,-0.009 0,0 z"
       id="path2092" />
    <path
       style="display:inline;opacity:1;fill:#0a344f;fill-opacity:1;stroke:none;stroke-width:0.169074"
       d="m 138.32111,125.79055 c -2.80813,-0.12131 -5.59919,0.39134 -8.21654,1.40116 -2.77973,1.01839 -5.39236,2.47198 -7.70779,4.31439 -2.10375,1.17041 -3.54511,3.21947 -4.95746,5.11124 -4.85867,6.94129 -5.96929,16.33009 -2.74114,24.17978 3.26996,8.41137 11.15236,14.88072 20.1135,16.19152 7.3225,1.18052 15.08628,-0.97308 20.73289,-5.78841 5.22415,-4.38622 8.69021,-10.9278 9.124,-17.75659 0.224,-3.46471 -0.0196,-6.99485 -1.22451,-10.27718 -2.15472,-6.48354 -6.96351,-12.0833 -13.13296,-15.04659 -2.52435,-0.9709 -5.11903,-1.89759 -7.81421,-2.23845 -1.38792,-0.12125 -2.78425,-0.0846 -4.17578,-0.0909 z m 0.44064,3.86648 c 8.13988,-0.20384 16.03194,4.69084 19.56605,12.00463 2.26789,4.4391 2.77782,9.59949 1.7826,14.4471 -1.49446,7.10237 -6.86113,13.17156 -13.6652,15.65203 -3.20847,1.30987 -6.81187,1.45117 -10.21402,1.24067 -8.24826,-0.9448 -15.65641,-7.07265 -18.11398,-15.03843 -1.14385,-3.38663 -1.15942,-7.01462 -0.68953,-10.53259 1.31625,-7.04188 6.29003,-13.40128 12.9968,-16.09937 2.63833,-1.12222 5.45646,-1.74269 8.33728,-1.67404 z"
       id="path2094" />
    <path
       style="display:inline;opacity:1;fill:#0a3960;fill-opacity:1;stroke:none;stroke-width:0.169074"
       d="m 105.44903,124.10778 c -1.84118,-0.0432 -3.62112,0.52142 -5.17025,1.50126 -3.478762,1.88822 -6.726048,4.18667 -10.205097,6.06307 -0.781494,-0.16163 -1.313053,-1.19195 -2.137399,-1.09185 -0.371182,0.56482 0.57436,0.90991 0.904004,1.2398 0.733946,0.46136 1.521402,0.79807 2.057866,1.51388 3.944861,3.8716 6.407896,9.08188 7.247202,14.50249 0.183057,2.48899 0.218019,5.05637 -0.06961,7.49822 -0.345864,0.80536 -0.323281,1.62163 0.692978,1.75485 4.610306,2.21642 10.320236,2.17994 14.800026,-0.32982 0.48452,-0.6063 -0.15137,-1.40845 -0.0681,-2.10303 -0.46173,-5.02498 0.12205,-10.19774 2.52388,-14.69385 1.37717,-3.00676 3.59879,-5.53236 5.9733,-7.80752 0.13673,-0.71598 -1.04263,-0.76808 -1.4852,-1.1947 -3.55458,-1.99836 -6.89968,-4.38933 -10.58227,-6.15645 -1.41342,-0.59938 -2.95858,-0.76063 -4.48128,-0.69635 z m 0.61364,10.27722 c 3.0673,-0.0881 5.91114,2.71032 5.78516,5.79826 0.15648,2.15813 -0.96574,4.3246 -2.88459,5.35039 -2.19961,1.37554 -5.37543,1.12471 -7.22779,-0.82105 -1.994127,-1.91789 -2.57002,-5.24856 -0.93475,-7.5747 1.11896,-1.84518 3.18019,-2.82319 5.26197,-2.7529 z"
       id="path2096" />
  </g>
</svg>
