<?xml version="1.0" encoding="UTF-8" standalone="no"?>
<!-- Created with Inkscape (http://www.inkscape.org/) -->

<svg
   width="16.273411mm"
   height="15.497011mm"
   viewBox="0 0 16.273411 15.497011"
   version="1.1"
   id="svg5"
   inkscape:version="1.2.1 (9c6d41e, 2022-07-14)"
   sodipodi:docname="dislike.svg"
   xmlns:inkscape="http://www.inkscape.org/namespaces/inkscape"
   xmlns:sodipodi="http://sodipodi.sourceforge.net/DTD/sodipodi-0.dtd"
   xmlns="http://www.w3.org/2000/svg"
   xmlns:svg="http://www.w3.org/2000/svg">
  <sodipodi:namedview
     id="namedview7"
     pagecolor="#ffffff"
     bordercolor="#666666"
     borderopacity="1.0"
     inkscape:showpageshadow="2"
     inkscape:pageopacity="0.0"
     inkscape:pagecheckerboard="0"
     inkscape:deskcolor="#d1d1d1"
     inkscape:document-units="mm"
     showgrid="false"
     inkscape:zoom="5.7804264"
     inkscape:cx="25.171154"
     inkscape:cy="59.338183"
     inkscape:window-width="2185"
     inkscape:window-height="1866"
     inkscape:window-x="1869"
     inkscape:window-y="132"
     inkscape:window-maximized="0"
     inkscape:current-layer="layer1" />
  <defs
     id="defs2">
    <inkscape:path-effect
       effect="rough_hatches"
       id="path-effect13256"
       is_visible="true"
       lpeversion="1.2"
       direction="96.145094,165.81228 , 2.4681506,-1.2062298"
       dist_rdm="75;1"
       growth="0"
       do_bend="true"
       bender="96.473956,166.31871 , 3.8512095,-3.0329615"
       bottom_edge_variation="1.35;1"
       top_edge_variation="1.35;1"
       bottom_tgt_variation="0;1"
       top_tgt_variation="0;1"
       scale_bf="1"
       scale_bb="1"
       scale_tf="1"
       scale_tb="1"
       top_smth_variation="0;1"
       bottom_smth_variation="0;1"
       fat_output="true"
       stroke_width_top="1"
       stroke_width_bottom="1"
       front_thickness="1"
       back_thickness="0.25" />
  </defs>
  <g
     inkscape:label="Layer 1"
     inkscape:groupmode="layer"
     id="layer1"
     transform="translate(-106.09406,-75.538739)">
    <path
       id="path8587-0"
       style="fill:none;fill-opacity:1;stroke:#784421;stroke-width:0.820951;stroke-dasharray:none;stroke-opacity:1"
       d="m 113.15632,78.583649 c -0.12219,1e-5 -0.23826,0.003 -0.27423,0.009 -0.0811,0.013 -0.14085,0.0251 -0.20778,0.0421 -0.0955,0.0242 -2.02766,1.03725 -2.39555,1.31662 -0.0234,0.0164 -0.0556,0.0415 -0.0782,0.0631 -0.01,0.009 -0.0383,0.0354 -0.0635,0.0581 -0.11355,0.10211 -0.25589,0.24778 -0.37147,0.38012 -0.0159,0.0182 -0.0442,0.0504 -0.0629,0.0718 -0.0187,0.0213 -0.0548,0.0634 -0.0802,0.0936 -0.0254,0.0302 -0.0501,0.0592 -0.055,0.0644 -0.005,0.005 -0.022,0.0256 -0.038,0.0454 -0.0561,0.0692 -0.12794,0.15635 -0.14613,0.17726 -0.0101,0.0116 -0.0297,0.0363 -0.0435,0.0549 -0.0138,0.0186 -0.0273,0.0357 -0.0299,0.038 -0.008,0.007 -0.12171,0.16982 -0.15617,0.22368 -0.0485,0.0758 -0.13876,0.22532 -0.13876,0.22982 0,0.002 -0.007,0.014 -0.0156,0.0263 -0.009,0.0123 -0.0338,0.0566 -0.0561,0.0984 -0.0223,0.0418 -0.0527,0.0988 -0.0677,0.12662 -0.0149,0.0279 -0.0463,0.0867 -0.0696,0.13083 -0.0233,0.0441 -0.0625,0.11818 -0.0871,0.16461 -0.0848,0.15982 -0.16007,0.31614 -0.19514,0.40517 -0.009,0.0232 -0.0217,0.0536 -0.0278,0.0675 -0.006,0.0139 -0.0214,0.0538 -0.0338,0.0886 -0.0124,0.0348 -0.0259,0.0709 -0.0299,0.0802 -0.0302,0.0695 -0.11428,0.36425 -0.14445,0.50648 -0.005,0.0232 -0.0124,0.0574 -0.0166,0.076 -0.0591,0.26209 -0.0995,0.63848 -0.0998,0.92853 -1.4e-4,0.1496 0.008,0.24465 0.0408,0.4938 0.0705,0.53015 0.0722,0.559 0.0346,0.56431 -0.0329,0.005 -0.10929,-0.0158 -0.16272,-0.0435 -0.044,-0.0229 -0.15809,-0.1249 -0.15809,-0.14143 0,-0.004 -0.006,-0.0126 -0.013,-0.0197 -0.0168,-0.0168 -0.0957,-0.17064 -0.12378,-0.24145 -0.0215,-0.054 -0.0249,-0.078 -0.0486,-0.33342 -0.0216,-0.23325 -0.0351,-0.59303 -0.0513,-1.36746 -0.009,-0.41814 -0.0149,-0.53373 -0.0315,-0.59508 -0.0138,-0.051 -0.0461,-0.11109 -0.0755,-0.14051 -0.0254,-0.0254 -0.0331,-0.0283 -0.0758,-0.0283 -0.0984,0 -0.16547,0.0715 -0.1899,0.20261 -0.0311,0.16678 -0.057,0.40201 -0.0748,0.67949 -0.025,0.3895 -0.0375,0.52238 -0.0763,0.81459 -0.0202,0.15231 -0.0247,0.20823 -0.0298,0.37103 -0.006,0.18971 0.006,0.31887 0.0395,0.42241 0.004,0.0116 0.0167,0.0534 0.0288,0.0929 0.0121,0.0395 0.0253,0.0793 0.0294,0.0886 0.004,0.009 0.0125,0.0299 0.0187,0.0459 0.0226,0.0581 0.11934,0.24794 0.13369,0.26221 0.002,0.002 0.0187,0.0264 0.0364,0.0534 0.042,0.0643 0.0619,0.0876 0.15324,0.1793 0.0865,0.0868 0.13972,0.12775 0.23659,0.18176 0.14678,0.0818 0.22251,0.10973 0.42206,0.15558 0.18052,0.0415 0.30877,0.0774 0.36306,0.10177 0.0469,0.021 0.0687,0.0487 0.19837,0.25247 0.1119,0.17577 0.17804,0.24931 0.34178,0.37994 0.0232,0.0185 0.0441,0.0356 0.0464,0.0379 0.0117,0.0117 0.17482,0.13102 0.24725,0.18083 0.088,0.0605 0.15299,0.0992 0.30142,0.17939 0.063,0.034 0.23742,0.10834 0.30426,0.12961 0.03,0.01 0.0621,0.0206 0.0714,0.0246 0.0257,0.011 0.12793,0.0401 0.19413,0.0552 0.0325,0.007 0.0724,0.017 0.0886,0.0213 0.0162,0.004 0.0429,0.01 0.0591,0.0127 0.0162,0.003 0.0504,0.009 0.0759,0.0131 0.19207,0.0343 0.41409,0.0572 0.72998,0.0754 0.0835,0.005 0.15883,0.011 0.16746,0.0137 0.0136,0.004 0.0151,0.0112 0.0109,0.0527 -0.008,0.0786 -0.009,0.26272 -0.003,0.66814 0.006,0.39108 0.008,0.42144 0.0407,0.48279 0.01,0.018 0.12246,0.15542 0.15122,0.18403 0.007,0.007 0.0256,0.0279 0.0413,0.0464 0.0419,0.0494 0.21702,0.24581 0.23713,0.2659 0.0108,0.0108 0.12571,0.14153 0.14003,0.15931 0.009,0.011 0.0237,0.0282 0.033,0.0381 0.009,0.01 0.0377,0.0427 0.0632,0.0728 0.0255,0.0301 0.0483,0.0567 0.0507,0.059 0.002,0.002 0.0232,0.027 0.0464,0.0549 0.0232,0.0279 0.0472,0.056 0.0535,0.0625 0.006,0.007 0.0272,0.0331 0.0465,0.0591 0.0193,0.026 0.0371,0.0491 0.0396,0.0514 0.002,0.002 0.0253,0.0306 0.0507,0.063 l 0.0462,0.0588 0.0107,-0.0672 c 0.0259,-0.16264 0.0265,-0.16763 0.0537,-0.46813 0.006,-0.0616 0.0127,-0.45892 0.0172,-0.95384 0.004,-0.46658 0.01,-0.93949 0.0124,-1.05092 0.006,-0.24284 -0.003,-0.33503 -0.056,-0.57399 -0.0142,-0.0644 -0.0572,-0.19739 -0.0846,-0.26167 -0.004,-0.009 -0.0153,-0.0359 -0.0251,-0.0591 -0.0311,-0.0731 -0.0807,-0.16663 -0.1255,-0.23648 -0.0237,-0.0371 -0.0432,-0.0724 -0.0432,-0.0786 0,-0.009 0.0514,-0.0103 0.28066,-0.007 0.15436,0.002 0.54086,0.008 0.85888,0.0126 0.31802,0.005 0.64468,0.0105 0.72593,0.0131 0.0812,0.003 0.37753,0.009 0.65841,0.0143 0.28088,0.005 0.53537,0.0119 0.56555,0.0148 l 0.0549,0.005 0.006,0.0464 c 0.0187,0.14332 0.0232,0.40681 0.0149,0.86098 -0.007,0.3658 -0.006,0.53986 0.002,0.74704 0.0121,0.30761 0.0129,0.53264 0.003,0.74941 -0.008,0.16801 -0.003,0.20129 0.0419,0.31024 0.0397,0.0954 0.0876,0.15974 0.2236,0.2999 0.11768,0.12132 0.27085,0.29175 0.32508,0.36168 0.0139,0.018 0.0293,0.0369 0.0341,0.042 0.008,0.008 0.11978,0.14451 0.15007,0.18243 0.0587,0.0736 0.1652,0.19878 0.22579,0.26559 0.0212,0.0234 0.0535,0.059 0.0718,0.0792 l 0.0332,0.0367 0.006,-0.36591 c 0.003,-0.20125 0.01,-0.65269 0.015,-1.00321 0.019,-1.3028 0.0246,-1.64788 0.0306,-1.89099 l 0.004,-0.17968 c 0.0241,-0.42052 0.18174,-3.89549 0.19443,-4.09131 0.0135,-0.20799 0.019,-1.42341 0.007,-1.46453 -0.0215,-0.0716 -0.0561,-0.12752 -0.12152,-0.19644 -0.0747,-0.0787 -0.15319,-0.13411 -0.30417,-0.21486 -0.12989,-0.0695 -0.14821,-0.0802 -0.21948,-0.12881 -0.14419,-0.0983 -0.31937,-0.25653 -0.4305,-0.38874 -0.0232,-0.0276 -0.0474,-0.0557 -0.0538,-0.0625 -0.033,-0.0349 -0.10443,-0.1389 -0.13367,-0.19467 -0.0318,-0.0607 -0.0646,-0.14721 -0.0865,-0.22792 -0.0216,-0.0798 -0.0264,-0.0994 -0.0437,-0.17725 -0.0582,-0.26176 -0.0725,-0.29807 -0.14904,-0.37699 -0.0977,-0.10077 -0.31771,-0.19277 -0.65601,-0.27422 -0.0711,-0.0171 -0.30872,-0.0633 -0.36718,-0.0713 -0.0162,-0.002 -0.0485,-0.008 -0.0717,-0.0117 -0.0852,-0.0155 -0.36997,-0.0482 -0.6588,-0.0757 -0.0605,-0.006 -0.18887,-0.009 -0.31107,-0.009 z" />
    <path
       style="fill:none;fill-opacity:1;stroke:#784421;stroke-width:0.820951;stroke-dasharray:none;stroke-opacity:1"
       d="m 118.18841,84.380929 c -0.0855,-0.0149 -0.12765,-0.0255 -0.20681,-0.0519 -0.0663,-0.0221 -0.19724,-0.0845 -0.24055,-0.11458 -0.18625,-0.12944 -0.33497,-0.32594 -0.45166,-0.59675 -0.0251,-0.0583 -0.0319,-0.0746 -0.0512,-0.12241 -0.01,-0.024 -0.0624,-0.18684 -0.0751,-0.23212 -0.006,-0.0209 -0.0139,-0.0475 -0.0178,-0.0591 -0.0105,-0.031 -0.0422,-0.15087 -0.0502,-0.18993 -0.004,-0.0186 -0.0208,-0.0907 -0.0377,-0.16039 -0.017,-0.0696 -0.0342,-0.14371 -0.0383,-0.1646 -0.004,-0.0209 -0.0135,-0.0646 -0.0207,-0.0971 -0.0136,-0.0607 -0.0257,-0.11631 -0.0389,-0.17937 -0.004,-0.0197 -0.011,-0.052 -0.0152,-0.0718 -0.004,-0.0197 -0.0117,-0.0568 -0.0166,-0.0823 -0.0295,-0.15208 -0.036,-0.18639 -0.0441,-0.23213 -0.005,-0.0279 -0.0121,-0.0677 -0.016,-0.0886 -0.0144,-0.0784 -0.044,-0.25724 -0.0596,-0.36086 -0.044,-0.29227 -0.0764,-0.55143 -0.092,-0.73648 -0.019,-0.226 -0.0373,-0.30025 -0.0888,-0.36044 -0.0503,-0.0588 -0.13074,-0.0848 -0.35896,-0.11607 -0.12244,-0.0168 -0.19423,-0.028 -0.25323,-0.0396 -0.2736,-0.0538 -0.54208,-0.22143 -0.73261,-0.45741 -0.0773,-0.0957 -0.10519,-0.13852 -0.15502,-0.23778 -0.0487,-0.0969 -0.077,-0.16648 -0.0922,-0.22631 -0.059,-0.23205 -0.0565,-0.36314 0.0134,-0.69377 0.0128,-0.0603 0.0263,-0.12492 0.0301,-0.14349 0.004,-0.0186 0.0106,-0.049 0.015,-0.0675 0.004,-0.0186 0.0118,-0.0509 0.0164,-0.0718 0.01,-0.0444 0.0339,-0.15001 0.0453,-0.19837 0.004,-0.0186 0.0113,-0.049 0.0152,-0.0675 0.004,-0.0186 0.0134,-0.0584 0.0209,-0.0886 0.008,-0.0302 0.0194,-0.0795 0.0264,-0.10973 0.007,-0.0302 0.0162,-0.0682 0.0206,-0.0844 0.004,-0.0162 0.0175,-0.0713 0.0292,-0.1224 0.0117,-0.0511 0.0249,-0.10614 0.0293,-0.12239 0.004,-0.0162 0.0122,-0.0485 0.0174,-0.0717 0.005,-0.0232 0.0129,-0.0555 0.017,-0.0718 0.004,-0.0163 0.0132,-0.0542 0.0202,-0.0844 0.007,-0.0302 0.0203,-0.0872 0.0296,-0.12662 0.0282,-0.12001 0.0489,-0.21186 0.0637,-0.28277 0.008,-0.0372 0.0177,-0.0808 0.022,-0.0971 0.004,-0.0163 0.0174,-0.0808 0.0293,-0.1435 0.0339,-0.18003 0.0651,-0.25919 0.12206,-0.31021 l 0.0212,-0.019 0.003,0.0739 c 0.004,0.1136 -0.0179,0.63616 -0.0391,0.93908 -0.005,0.0673 -0.0126,0.18127 -0.0175,0.25323 -0.005,0.072 -0.011,0.14793 -0.0135,0.16883 -0.002,0.0209 -0.008,0.0931 -0.0132,0.16038 -0.005,0.0673 -0.0125,0.17557 -0.0171,0.24057 -0.0246,0.34408 -0.0437,0.74957 -0.0388,0.823 0.005,0.0752 0.0205,0.11922 0.0697,0.1984 0.0766,0.12319 0.25027,0.24167 0.45117,0.30775 0.0811,0.0267 0.14418,0.0349 0.45582,0.059 0.24406,0.0189 0.62617,0.0259 1.41388,0.0259 0.81693,-6e-5 1.13805,0.007 1.53628,0.0334 0.15178,0.0101 0.17458,0.0112 0.51068,0.0254 0.25764,0.0109 0.68604,0.006 0.79346,-0.009 0.0348,-0.005 0.0956,-0.0146 0.13506,-0.0217 0.0667,-0.012 0.0896,-0.0177 0.15616,-0.039 0.20479,-0.0656 0.36197,-0.18678 0.4395,-0.33875 0.0268,-0.0525 0.0318,-0.0721 0.0391,-0.15303 0.005,-0.0542 0.006,-0.19833 0.003,-0.34608 -0.007,-0.344 -0.0127,-0.43568 -0.0687,-1.13955 -0.0265,-0.33354 -0.0301,-0.40985 -0.0346,-0.73433 l -0.005,-0.32916 0.0178,0.0161 c 0.0396,0.0358 0.0734,0.13487 0.11405,0.33415 0.008,0.0395 0.0179,0.0851 0.0218,0.1013 0.008,0.0329 0.0158,0.0719 0.0465,0.23212 0.0322,0.1678 0.051,0.26874 0.0592,0.31655 0.003,0.0162 0.0107,0.0599 0.0177,0.0971 0.0162,0.0863 0.0275,0.14945 0.0363,0.20258 0.0122,0.0734 0.0429,0.2433 0.0511,0.28278 0.004,0.0209 0.0119,0.0589 0.0168,0.0844 0.007,0.0387 0.0277,0.14023 0.0851,0.42627 0.004,0.0186 0.0169,0.0755 0.0294,0.12662 0.0372,0.15285 0.063,0.34617 0.0625,0.46848 -3.1e-4,0.072 -0.0163,0.21518 -0.0321,0.28801 -0.0581,0.26714 -0.23601,0.51003 -0.49624,0.6775 -0.0333,0.0214 -0.0643,0.039 -0.0689,0.039 -0.005,0 -0.01,0.003 -0.0112,0.006 -0.002,0.006 -0.0555,0.0311 -0.15476,0.0744 -0.0654,0.0285 -0.20257,0.0689 -0.31232,0.0919 -0.0608,0.0127 -0.19113,0.0308 -0.33504,0.0463 -0.045,0.005 -0.14653,0.009 -0.22563,0.009 -0.16475,0 -0.1475,-0.0102 -0.15629,0.0928 -0.0172,0.20196 -0.0647,0.49727 -0.11881,0.73859 -0.0125,0.0557 -0.0259,0.11649 -0.0299,0.13506 -0.004,0.0186 -0.0185,0.0774 -0.0324,0.13084 -0.0223,0.0858 -0.0321,0.1224 -0.06,0.22369 -0.004,0.0139 -0.0131,0.0481 -0.0206,0.076 -0.007,0.0279 -0.0225,0.0791 -0.0333,0.11395 -0.0108,0.0348 -0.0282,0.0918 -0.0387,0.12662 -0.0236,0.0786 -0.19282,0.5889 -0.20294,0.61197 -0.004,0.009 -0.0212,0.0568 -0.038,0.10552 -0.0168,0.0487 -0.0364,0.10382 -0.0436,0.12239 -0.007,0.0186 -0.0242,0.0661 -0.0378,0.10552 -0.0136,0.0395 -0.0282,0.0793 -0.0322,0.0886 -0.007,0.0159 -0.0421,0.1134 -0.0609,0.16882 -0.005,0.0139 -0.0117,0.0329 -0.0155,0.0422 -0.004,0.009 -0.017,0.0454 -0.0294,0.0802 -0.0123,0.0348 -0.0256,0.0709 -0.0294,0.0802 -0.004,0.009 -0.0115,0.0302 -0.0171,0.0464 -0.066,0.19232 -0.18765,0.36402 -0.35817,0.50571 -0.0928,0.0771 -0.13663,0.10701 -0.247,0.16852 -0.14518,0.0809 -0.16324,0.0856 -0.32524,0.0847 -0.0761,-4.2e-4 -0.16751,-0.006 -0.20491,-0.0126 z"
       id="path8591-8" />
  </g>
</svg>
