<?xml version="1.0" encoding="UTF-8" standalone="no"?>
<!-- Created with Inkscape (http://www.inkscape.org/) -->

<svg
   width="16.273411mm"
   height="15.497011mm"
   viewBox="0 0 16.273411 15.497011"
   version="1.1"
   id="svg5"
   inkscape:version="1.2.1 (9c6d41e, 2022-07-14)"
   sodipodi:docname="like+.svg"
   xmlns:inkscape="http://www.inkscape.org/namespaces/inkscape"
   xmlns:sodipodi="http://sodipodi.sourceforge.net/DTD/sodipodi-0.dtd"
   xmlns="http://www.w3.org/2000/svg"
   xmlns:svg="http://www.w3.org/2000/svg">
  <sodipodi:namedview
     id="namedview7"
     pagecolor="#ffffff"
     bordercolor="#666666"
     borderopacity="1.0"
     inkscape:showpageshadow="2"
     inkscape:pageopacity="0.0"
     inkscape:pagecheckerboard="0"
     inkscape:deskcolor="#d1d1d1"
     inkscape:document-units="mm"
     showgrid="false"
     inkscape:zoom="14.203268"
     inkscape:cx="38.195436"
     inkscape:cy="45.623304"
     inkscape:window-width="2185"
     inkscape:window-height="1866"
     inkscape:window-x="1869"
     inkscape:window-y="132"
     inkscape:window-maximized="0"
     inkscape:current-layer="layer1" />
  <defs
     id="defs2">
    <inkscape:path-effect
       effect="rough_hatches"
       id="path-effect13256"
       is_visible="true"
       lpeversion="1.2"
       direction="96.145094,165.81228 , 2.4681506,-1.2062298"
       dist_rdm="75;1"
       growth="0"
       do_bend="true"
       bender="96.473956,166.31871 , 3.8512095,-3.0329615"
       bottom_edge_variation="1.35;1"
       top_edge_variation="1.35;1"
       bottom_tgt_variation="0;1"
       top_tgt_variation="0;1"
       scale_bf="1"
       scale_bb="1"
       scale_tf="1"
       scale_tb="1"
       top_smth_variation="0;1"
       bottom_smth_variation="0;1"
       fat_output="true"
       stroke_width_top="1"
       stroke_width_bottom="1"
       front_thickness="1"
       back_thickness="0.25" />
    <inkscape:path-effect
       effect="rough_hatches"
       id="path-effect8441"
       is_visible="true"
       lpeversion="1.2"
       direction="174.19874,162.18977 , 3.3712894,1.9409477"
       dist_rdm="75;1"
       growth="0"
       do_bend="true"
       bender="172.79694,164.60184 , 4.5686828,3.5584039"
       bottom_edge_variation="1.35;1"
       top_edge_variation="1.3529941;1"
       bottom_tgt_variation="0;562036735"
       top_tgt_variation="0;1"
       scale_bf="1"
       scale_bb="1"
       scale_tf="1"
       scale_tb="1"
       top_smth_variation="0;1"
       bottom_smth_variation="0;1"
       fat_output="true"
       stroke_width_top="1"
       stroke_width_bottom="1"
       front_thickness="1"
       back_thickness="0.25" />
  </defs>
  <g
     inkscape:label="Layer 1"
     inkscape:groupmode="layer"
     id="layer1"
     transform="translate(-106.09406,-75.538739)">
    <path
       style="fill:none;fill-opacity:1;stroke:#f71f2f;stroke-width:0.914;stroke-dasharray:none;stroke-opacity:1"
       d="m 113.98027,89.793644 c -0.70622,-0.47903 -2.07823,-1.54959 -2.76816,-2.15998 -1.36296,-1.20582 -2.53521,-2.49289 -3.26503,-3.5848 -0.1527,-0.22846 -0.4689,-0.74047 -0.4689,-0.75926 0,-0.009 -0.059,-0.12263 -0.13109,-0.25378 -0.25337,-0.46094 -0.54287,-1.25456 -0.65856,-1.80536 -0.0451,-0.21421 -0.0594,-0.43437 -0.059,-0.90056 5.9e-4,-0.56214 0.009,-0.647864 0.0909,-0.963404 0.13235,-0.50754 0.42704,-1.14964 0.63987,-1.39421 0.34776,-0.39963 0.46272,-0.52114 0.61111,-0.64593 1.2938,-1.08795 3.17412,-1.19393 4.55529,-0.25673 0.45895,0.3114 1.413,1.19572 1.6081,1.49054 0.0493,0.0745 0.0931,0.13539 0.0974,0.13539 0.004,0 0.0499,-0.0638 0.10151,-0.14176 0.19254,-0.29131 1.14547,-1.17305 1.604,-1.48417 1.25713,-0.85303 2.92224,-0.84924 4.234,0.01 0.17898,0.11718 0.73475,0.64195 0.89936,0.84917 0.29193,0.36752 0.53763,0.89976 0.68686,1.48792 0.10141,0.399634 0.11072,1.375014 0.0172,1.814114 -0.35092,1.64975 -1.42828,3.36765 -3.27375,5.22011 -0.74494,0.74775 -1.1585,1.1235 -1.99197,1.80978 -0.5134,0.42274 -1.55713,1.21754 -1.88989,1.43914 -0.0988,0.0658 -0.2272,0.15175 -0.28542,0.19106 l -0.10585,0.0715 z"
       id="path5986-3" />
    <path
       style="fill:#f71f2f;fill-opacity:1;stroke:none;stroke-width:0.914;stroke-dasharray:none;stroke-opacity:1"
       d="m 118.82201,86.142662 c 0,0 1.08511,-1.51469 1.77538,-3.405177 0.68728,-1.882317 0.96078,-4.134195 0.68294,-4.539703 -0.41287,-0.602591 -1.22345,2.756263 -2.91191,5.50189 -1.68847,2.745627 -4.28979,4.850777 -4.32706,4.822825 -0.18941,-0.142045 2.18869,-2.229759 3.66322,-5.010609 1.47453,-2.78085 2.05045,-6.25097 1.91588,-6.307813 -0.29327,-0.123879 -1.11286,3.276956 -2.79945,5.976637 -1.6866,2.699682 -4.2281,4.707634 -4.18638,4.74118 -0.10527,-0.08465 2.40162,-2.131484 3.91331,-4.896051 1.5117,-2.764567 2.05569,-6.225464 1.74405,-6.241292 -0.48398,-0.02458 -1.4427,3.040066 -3.10423,5.467848 -1.66152,2.427783 -3.98836,4.247905 -4.02056,4.217314 -0.16697,-0.158635 2.09634,-2.159285 3.44861,-4.660413 1.3327,-2.464953 1.92333,-5.453008 1.38105,-5.016129 -0.74846,0.602986 -1.82951,2.719733 -3.0891,4.408433 -1.25958,1.6887 -2.62733,3.004162 -2.54534,3.097995 -0.041,-0.0469 1.26014,-1.292443 2.23483,-2.798667 0.97468,-1.506223 1.62123,-3.274447 1.47573,-3.428455 -0.28268,-0.299202 -1.17096,1.339429 -2.3104,2.804557 -1.13944,1.465128 -2.53628,2.751895 -2.51947,2.774429 -0.0952,-0.127597 1.1761,-1.39261 2.13308,-2.889113 0.95699,-1.496503 1.60313,-3.22178 1.43746,-3.350916 -0.31502,-0.245546 -1.19648,1.27938 -2.28273,2.650055 -1.08625,1.370675 -2.37866,2.586032 -2.35764,2.623242 -0.0732,-0.129627 1.13808,-1.353311 2.00448,-2.776221 0.86639,-1.422911 1.4056,-3.031229 1.04089,-3.110173 -0.52671,-0.114011 -1.38524,0.936713 -2.22103,1.887465 -0.84269,0.958589 -1.68642,1.838294 -1.68696,1.835025 -0.0353,-0.214107 0.60794,-1.086669 1.08306,-1.899739 0.48358,-0.827549 0.82806,-1.626862 0.54556,-1.527054 -1.12894,0.39886 -1.57194,0.999206 -1.77103,1.802768 0.0139,-0.05615 1.16901,-1.89106 1.16901,-1.89106 0,0 -1.65401,2.084648 -1.82139,2.638188 -0.20561,0.679986 0.39023,0.330826 0.9935,-0.307217 0.56944,-0.602277 1.09992,-1.466604 0.89547,-1.403693 0.10618,-0.03267 -0.31035,0.652223 -0.79505,1.387978 -0.47872,0.726676 -1.05689,1.540095 -1.00759,1.903279 0.0826,0.60816 1.28928,-0.12563 2.30357,-1.156777 1.01366,-1.030503 1.79845,-2.383328 1.8552,-2.370393 0.24608,0.05609 -0.41028,1.542029 -1.33831,2.883978 -0.92803,1.341949 -2.14422,2.527068 -2.01314,2.764026 0.23192,0.419225 1.82095,-0.58562 3.02727,-1.914676 1.21181,-1.3351 2.02572,-3.03719 1.94249,-3.102068 0.0661,0.05153 -0.70409,1.659223 -1.7369,3.08621 -1.0328,1.426987 -2.33435,2.668481 -2.16797,2.893413 0.27609,0.373248 1.94367,-0.651505 3.19249,-2.047785 1.24882,-1.396279 2.06582,-3.174252 1.98356,-3.261564 0.0535,0.05678 -0.71905,1.711882 -1.77437,3.154201 -1.05532,1.442319 -2.39538,2.670318 -2.27408,2.809741 0.24261,0.278858 2.20637,-1.076522 3.64061,-2.911228 1.43423,-1.834705 2.31597,-4.16663 2.43468,-4.251835 0.43918,-0.315222 -0.40794,2.56559 -1.83708,4.83846 -1.47199,2.341016 -3.74582,4.207439 -3.49063,4.450166 0.3891,0.370105 3.16134,-1.270411 4.98255,-3.672849 1.82122,-2.402438 2.68179,-5.5743 2.70686,-5.572547 0.20206,0.01413 -0.54692,3.31413 -2.2022,5.945339 -1.65527,2.631209 -4.23432,4.580014 -4.03124,4.743312 0.34993,0.281387 3.2866,-1.494209 5.12708,-4.114222 1.84047,-2.620013 2.58927,-6.080925 2.45763,-6.137145 0.0292,0.01245 -0.7476,3.327614 -2.36753,5.986522 -1.61993,2.658908 -4.08324,4.661391 -3.79211,4.879741 0.44343,0.33257 3.32132,-1.43463 5.1538,-4.003875 1.83249,-2.569244 2.62535,-5.936043 2.6768,-5.860046 0.18307,0.270428 -0.11387,2.190239 -0.72138,3.836193 -0.60987,1.652331 -1.51784,3.024095 -1.51784,3.024095 z"
       id="path5986-8"
       inkscape:path-effect="#path-effect8441"
       inkscape:original-d="m 114.19006,89.597396 c -0.70622,-0.47903 -2.07823,-1.54959 -2.76816,-2.15998 -1.36296,-1.20582 -2.53521,-2.49289 -3.26503,-3.5848 -0.1527,-0.22846 -0.4689,-0.74047 -0.4689,-0.75926 0,-0.009 -0.059,-0.12263 -0.13109,-0.25378 -0.25337,-0.46094 -0.54287,-1.25456 -0.65856,-1.80536 -0.0451,-0.21421 -0.0594,-0.43437 -0.059,-0.90056 5.9e-4,-0.56214 0.009,-0.647864 0.0909,-0.963404 0.13235,-0.50754 0.42704,-1.14964 0.63987,-1.39421 0.34776,-0.39963 0.46272,-0.52114 0.61111,-0.64593 1.2938,-1.08795 3.17412,-1.19393 4.55529,-0.25673 0.45895,0.3114 1.413,1.19572 1.6081,1.49054 0.0493,0.0745 0.0931,0.13539 0.0974,0.13539 0.004,0 0.0499,-0.0638 0.10151,-0.14176 0.19254,-0.29131 1.14547,-1.17305 1.604,-1.48417 1.25713,-0.85303 2.92224,-0.84924 4.234,0.01 0.17898,0.11718 0.73475,0.64195 0.89936,0.84917 0.29193,0.36752 0.53763,0.89976 0.68686,1.48792 0.10141,0.399634 0.11072,1.375014 0.0172,1.814114 -0.35092,1.64975 -1.42828,3.36765 -3.27375,5.22011 -0.74494,0.74775 -1.1585,1.1235 -1.99197,1.80978 -0.5134,0.42274 -1.55713,1.21754 -1.88989,1.43914 -0.0988,0.0658 -0.2272,0.15175 -0.28542,0.19106 l -0.10585,0.0715 z" />
  </g>
</svg>
